<svg id="Layer_1" data-name="Layer 1" xmlns="http://www.w3.org/2000/svg" viewBox="0 0 584.21 200"><defs><style>.cls-1{fill:#f7941d;}</style></defs><path d="M162,4.7h17.42V195.3H162Z" transform="translate(-7.74)"/><path d="M191.09,4.7h18.32L243.1,145.58V5.08l15.45-.29V195.3H240.24L207.53,55.49V195.3H191.09Z" transform="translate(-7.74)"/><path d="M7.74,38.6q0-37.1,33.68-37.1T75.2,38.6V65.35H57.78V38.6q0-18.51-16.27-18.6h-.18Q25.16,20,25.16,38.6V56.8q0,15.89,27,36.9Q75.21,111.52,75.2,136V161.4q0,37.2-33.69,37.19T7.74,161.4V121.16H25.16V161.4q0,18.6,16.35,18.6t16.27-18.6V138.55q0-17.15-27-38.07-23.05-17.91-23-43.1Z" transform="translate(-7.74)"/><path d="M148.21,129.83,130.07,4.7H101.38L83.15,130.22l-8,65.08H92.8l4.66-37.51-8.65-5h44.65l5.18,42.52h17.7Zm-48.08,4.36L115.68,20.87l15.46,113.32Z" transform="translate(-7.74)"/><polygon points="260.9 4.7 260.9 23.1 286.01 23.1 286.01 195.3 303.35 195.3 303.35 28.31 294.36 23.11 303.35 23.11 303.35 23.1 328.37 23.1 328.37 4.7 260.9 4.7"/><path class="cls-1" d="M505.29,158.06q0,41.85-38.6,41.94t-38.51-41.94V41.84Q428.18,0,466.69,0t38.6,41.84ZM475.54,41.84q0-10.85-8.76-10.94h-.18q-8.67,0-8.67,10.94V158.06q0,11,8.76,10.95t8.85-10.95Z" transform="translate(-7.74)"/><path class="cls-1" d="M418.19,158.06q0,41.85-38.6,41.94t-38.52-41.94V41.84Q341.07,0,379.59,0t38.6,41.84V69.35H388.43V41.84q0-10.85-8.75-10.94h-.18q-8.67,0-8.67,10.94V158.06q0,11,8.76,10.95t8.84-10.95v-27.5h29.76Z" transform="translate(-7.74)"/><path class="cls-1" d="M514.83,3h29.4l19.84,95.5V3H592V196.9h-29.4L543.6,104V196.9H514.83Z" transform="translate(-7.74)"/></svg>